<svg width="100" height="52" viewBox="0 0 100 52" fill="none" xmlns="http://www.w3.org/2000/svg">
<path fill-rule="evenodd" clip-rule="evenodd" d="M34.4309 24.1676L1 46H10.9375L39.6979 27.5933L34.4309 24.1676ZM60.0069 27.4044L89.0625 46H99L65.284 23.9814L60.0069 27.4044Z" fill="#282825"/>
<path fill-rule="evenodd" clip-rule="evenodd" d="M46.7788 35.9259C48.7517 37.19 51.2799 37.19 53.2528 35.9259L95.1938 9.0519C97.4755 7.5899 98.2572 5.19032 97.8748 3.00001H91.2392C90.9596 4.47477 90.1093 5.8751 88.5871 6.85794L53.2705 29.6611C51.2893 30.9404 48.7425 30.9404 46.7613 29.6612L11.4447 6.85794C9.92255 5.8751 9.07225 4.47477 8.79269 3.00001H2.15678C1.77442 5.19032 2.55613 7.5899 4.83781 9.0519L46.7788 35.9259Z" fill="#282825"/>
<path fill-rule="evenodd" clip-rule="evenodd" d="M8 0C3.58172 0 0 3.58172 0 8V44C0 48.4183 3.58172 52 8 52H92C96.4183 52 100 48.4183 100 44V8C100 3.58172 96.4183 0 92 0H8ZM14 6C9.58172 6 6 9.58172 6 14V38C6 42.4183 9.58172 46 14 46H86C90.4183 46 94 42.4183 94 38V14C94 9.58172 90.4183 6 86 6H14Z" fill="#282825"/>
</svg>
