<svg width="366" height="206" viewBox="0 0 366 206" fill="none" xmlns="http://www.w3.org/2000/svg">
<rect width="366" height="206" fill="#282825"/>
<path fill-rule="evenodd" clip-rule="evenodd" d="M102 73H100V122H265V120H102V73Z" fill="#FCFBF4"/>
<path fill-rule="evenodd" clip-rule="evenodd" d="M102 133H100V182H265V180H102V133Z" fill="#FCFBF4"/>
<path fill-rule="evenodd" clip-rule="evenodd" d="M102 193H100V206H102V193Z" fill="#FCFBF4"/>
<path fill-rule="evenodd" clip-rule="evenodd" d="M199.61 54.6095C204.159 50.324 207 44.2437 207 37.5C207 24.5213 196.479 14 183.5 14C176.756 14 170.676 16.8406 166.391 21.3905C170.597 17.4282 176.265 15 182.5 15C195.479 15 206 25.5213 206 38.5C206 44.735 203.572 50.4029 199.61 54.6095Z" fill="#FCFBF4"/>
</svg>
