<svg width="366" height="206" viewBox="0 0 366 206" fill="none" xmlns="http://www.w3.org/2000/svg">
<rect width="366" height="206" fill="#FCFBF4"/>
<path fill-rule="evenodd" clip-rule="evenodd" d="M213 43H37V45H211V168H213V43Z" fill="#282825"/>
<path fill-rule="evenodd" clip-rule="evenodd" d="M48 138H47V163H87V162H48V138Z" fill="#282825"/>
<path fill-rule="evenodd" clip-rule="evenodd" d="M103 138H102V163H142V162H103V138Z" fill="#282825"/>
<path fill-rule="evenodd" clip-rule="evenodd" d="M158 138H157V163H197V162H158V138Z" fill="#282825"/>
<path fill-rule="evenodd" clip-rule="evenodd" d="M94.7021 91.9989C94.2238 96.227 95.5147 100.691 98.902 104.146L113.626 119.169C121.575 127.279 135.304 123.957 138.666 113.111L145.224 91.9556C147.655 84.1145 143.423 76.5754 136.812 73.7087C142.817 76.8422 146.509 83.9418 144.298 91.3434L138.289 111.458C135.019 122.404 121.201 125.823 113.204 117.664L98.9818 103.154C95.8563 99.9652 94.5168 95.9227 94.7021 91.9989Z" fill="#282825"/>
<path d="M236 54H238V74H236V54Z" fill="#282825"/>
<path d="M291 141H331V162H291V141Z" fill="#009E23"/>
<path d="M236 90H283V91H236V90Z" fill="#282825"/>
<path d="M236 101H296V102H236V101Z" fill="#282825"/>
<path d="M236 112H270V113H236V112Z" fill="#282825"/>
</svg>
