<svg width="366" height="206" viewBox="0 0 366 206" fill="none" xmlns="http://www.w3.org/2000/svg">
<rect width="366" height="206" fill="#282825"/>
<path fill-rule="evenodd" clip-rule="evenodd" d="M24 58H23V66H103V65H24V58Z" fill="#FCFBF4"/>
<path fill-rule="evenodd" clip-rule="evenodd" d="M24 118H23V126H59V125H24V118Z" fill="#FCFBF4"/>
<rect x="89" y="135" width="13.7603" height="13.7603" fill="#00C673"/>
<path fill-rule="evenodd" clip-rule="evenodd" d="M24 73H23V112H59V111H24V73Z" fill="#FCFBF4"/>
<path fill-rule="evenodd" clip-rule="evenodd" d="M68 73H67V112H103V111H68V73Z" fill="#FCFBF4"/>
<path fill-rule="evenodd" clip-rule="evenodd" d="M111 50H17V51H110V156H111V50Z" fill="#FCFBF4"/>
<path fill-rule="evenodd" clip-rule="evenodd" d="M143 58H142V66H222V65H143V58Z" fill="#FCFBF4"/>
<path fill-rule="evenodd" clip-rule="evenodd" d="M143 118H142V126H178V125H143V118Z" fill="#FCFBF4"/>
<rect x="208" y="135" width="13.7603" height="13.7603" fill="#FF000F"/>
<path fill-rule="evenodd" clip-rule="evenodd" d="M143 73H142V112H178V111H143V73Z" fill="#FCFBF4"/>
<path fill-rule="evenodd" clip-rule="evenodd" d="M187 73H186V112H222V111H187V73Z" fill="#FCFBF4"/>
<path fill-rule="evenodd" clip-rule="evenodd" d="M230 50H136V51H229V156H230V50Z" fill="#FCFBF4"/>
<path fill-rule="evenodd" clip-rule="evenodd" d="M260 58H259V66H339V65H260V58Z" fill="#FCFBF4"/>
<path fill-rule="evenodd" clip-rule="evenodd" d="M260 118H259V126H295V125H260V118Z" fill="#FCFBF4"/>
<rect x="325" y="135" width="13.7603" height="13.7603" fill="#00C673"/>
<path fill-rule="evenodd" clip-rule="evenodd" d="M260 73H259V112H295V111H260V73Z" fill="#FCFBF4"/>
<path fill-rule="evenodd" clip-rule="evenodd" d="M304 73H303V112H339V111H304V73Z" fill="#FCFBF4"/>
<path fill-rule="evenodd" clip-rule="evenodd" d="M347 50H253V51H346V156H347V50Z" fill="#FCFBF4"/>
</svg>
