<svg width="233" height="206" viewBox="0 0 233 206" fill="none" xmlns="http://www.w3.org/2000/svg">
<path fill-rule="evenodd" clip-rule="evenodd" d="M229.694 109.068C220.565 122.578 203.105 117.39 184.78 111.944C159.442 104.415 132.451 96.3941 123.548 136.638C101.796 234.954 0 205.168 0 141.26C0 109.431 14.5669 81.3996 38.2729 61.2778L61.7884 138.489C56.3526 143.815 52.4857 150.248 52.4857 156.068C52.4857 169.042 59.523 176.809 72.4969 176.809C85.4709 176.809 94.865 168.918 97.7285 156.068C100.875 141.947 97.6516 127.068 84.6777 127.068C82.5458 127.068 80.2454 127.501 77.8894 128.282L54.0171 49.8991C75.8656 36.5082 102.877 28.7513 132.248 28.7513C194.022 28.7513 243.615 88.4647 229.694 109.068Z" fill="#DCDCD1"/>
<path fill-rule="evenodd" clip-rule="evenodd" d="M36.4794 39.7348L36.4768 39.7357L47.7462 82.0315L59.6076 78.419L45.6515 37.9894C43.7477 39.2596 41.4603 40 39 40C38.1354 40 37.2921 39.9086 36.4794 39.7348Z" fill="#DCDCD1"/>
<path fill-rule="evenodd" clip-rule="evenodd" d="M49.8276 84.8568L59.4025 81.9407L85.976 169.193C83.5371 171.103 80.0226 172.648 76.6566 172.948L49.8276 84.8568ZM78.4312 178.774C81.7631 178.271 85.0619 176.967 87.8134 175.225L91.7934 188.294L91.3786 187.879C91.2394 188.018 90.7519 188.404 89.8408 189.008C88.9966 189.569 87.9549 190.209 86.8633 190.846C85.3813 191.711 83.9089 192.509 82.7847 193.069L78.4312 178.774ZM84.5534 198.876L86.6002 205.597L96.1751 202.68L93.4701 193.799C93.3662 193.869 93.2623 193.939 93.1591 194.007C92.1908 194.65 91.045 195.353 89.8866 196.029C88.0497 197.1 86.0339 198.189 84.5534 198.876Z" fill="#DCDCD1"/>
<path d="M46.6067 19.3043C51.3621 24.1304 49.1864 37 38.6811 37C28.1757 37 26 25.7391 26 20.913C26 14.4783 30.7554 4.82609 38.6811 0C38.6811 12.8696 41.8513 14.4783 46.6067 19.3043Z" fill="#DCDCD1"/>
</svg>
